<svg xmlns="http://www.w3.org/2000/svg" viewBox="0 0 32 32" fill="none">
  <path d="M16 30 C16 30 16 22 16 19 C13.5 23 9 27 5.5 28.5 C9 25 13 19.5 15 15 C11.5 19.5 5.5 22 2 23 C6.5 20 11.5 15.5 14 12 C10 15 4.5 16.5 1 16.5 C5 14.5 11 11 14 8 C10.5 9.5 5.5 9.5 2 9 C6.5 7.5 12 6 15.5 4.5 C13.5 2.5 11 0.5 11 0 C13 2 15 4 16 5.5 C17 4 19 2 21 0 C21 0.5 18.5 2.5 16.5 4.5 C20 6 25.5 7.5 30 9 C26.5 9.5 21.5 9.5 18 8 C21 11 27 14.5 31 16.5 C27.5 16.5 22 15 18 12 C20.5 15.5 25.5 20 29.5 23 C26.5 22 20.5 19.5 17 15 C19 19.5 23 25 26.5 28.5 C23 27 18.5 23 16 19 C16 22 16 30 16 30Z" fill="#2d5016"/>
</svg>
